<?xml version="1.0" encoding="UTF-8" standalone="no"?>
<!DOCTYPE svg PUBLIC "-//W3C//DTD SVG 1.1//EN" "http://www.w3.org/Graphics/SVG/1.1/DTD/svg11.dtd">
<svg width="100%" height="100%" viewBox="0 0 2500 417" version="1.1" xmlns="http://www.w3.org/2000/svg" xmlnsXlink="http://www.w3.org/1999/xlink" style="fill-rule:evenodd;clip-rule:evenodd;stroke-linejoin:round;stroke-miterlimit:2;">
    <g id="logo_signet" transform="matrix(4.16667,0,0,4.16667,-503.938,0)">
        <g transform="matrix(1,0,0,1,152.675,45.357)">
            <path d="M0,46.803C-8.785,46.803 -15.625,44.211 -23.33,38.09L-15.049,29.595C-11.017,33.554 -5.473,35.787 -0.216,35.787C5.76,35.787 7.849,34.346 7.849,32.835C7.849,31.538 7.128,30.602 2.592,29.595C1.656,29.378 -4.537,27.794 -5.544,27.578C-13.249,25.706 -21.962,22.609 -21.962,13.896C-21.962,5.616 -13.969,0 -0.864,0C7.777,0 15.049,2.88 20.306,7.992L12.313,15.913C9.001,12.745 4.176,10.801 -0.72,10.801C-6.625,10.801 -8.065,12.385 -8.065,13.753C-8.065,15.337 -5.688,15.985 -0.72,17.137C0.216,17.425 5.544,18.793 6.553,19.081C16.273,21.386 21.746,24.986 21.746,32.114C21.746,40.25 14.401,46.803 0,46.803" style="fill:rgb(26,23,27);fill-rule:nonzero;"/>
        </g>
        <g transform="matrix(1,0,0,1,205.882,80.3509)">
            <path d="M0,-23.329C-7.777,-23.329 -11.161,-18.865 -11.161,-11.664C-11.161,-4.536 -7.705,0.072 0.072,0.072C7.849,0.072 11.233,-4.464 11.233,-11.664C11.233,-18.793 7.776,-23.329 0,-23.329M0,11.737C-16.634,11.737 -24.986,1.441 -24.986,-11.664C-24.986,-24.769 -16.634,-35.066 0,-35.066C16.706,-35.066 25.058,-24.842 25.058,-11.664C25.058,1.369 16.562,11.737 0,11.737" style="fill:rgb(26,23,27);fill-rule:nonzero;"/>
        </g>
        <g transform="matrix(1,0,0,1,282.275,53.0594)">
            <path d="M0,31.253C-4.32,35.646 -11.593,39.028 -19.658,39.028C-36.651,39.028 -44.86,28.732 -44.86,15.916C-44.86,2.882 -35.715,-7.775 -19.514,-7.775C-10.513,-7.775 -4.249,-4.535 -0.216,-0.287L-9.073,8.571C-11.953,5.474 -14.905,3.962 -19.441,3.962C-27.002,3.962 -31.035,8.93 -31.035,15.916C-31.035,22.612 -27.65,27.364 -19.585,27.364C-15.049,27.364 -11.665,25.564 -8.641,22.54L0,31.253Z" style="fill:rgb(26,23,27);fill-rule:nonzero;"/>
        </g>
        <g transform="matrix(1,0,0,1,-6.6634,-259.176)">
            <path d="M309.959,350.546L296.134,350.546L296.134,305.181L309.959,305.181L309.959,350.546ZM303.047,302.877C298.798,302.877 295.846,299.637 295.846,295.532C295.846,291.356 298.798,288.188 303.047,288.188C307.367,288.188 310.32,291.356 310.32,295.532C310.32,299.709 307.295,302.877 303.047,302.877" style="fill:rgb(26,23,27);fill-rule:nonzero;"/>
        </g>
        <g transform="matrix(1,0,0,1,346.569,65.086)">
            <path d="M0,7.345L-2.232,7.345C-4.176,7.345 -5.616,7.345 -8.064,7.417C-10.369,7.561 -12.817,7.705 -14.977,8.137C-19.514,9.073 -20.81,10.513 -20.81,12.241C-20.81,14.114 -18.217,16.058 -12.889,16.058C-9.577,16.058 -1.224,15.77 -1.224,11.738L-1.224,8.641L0,7.345ZM12.602,26.355L-1.224,26.355L-1.224,24.123L-1.368,24.123C-4.464,25.851 -9.217,27.074 -13.897,27.074C-22.394,27.074 -34.563,24.051 -34.563,11.953C-34.563,-1.44 -15.985,-2.952 -4.824,-2.952L-0.36,-2.952L-1.584,-4.176C-1.584,-6.984 -4.392,-8.785 -9.217,-8.785C-13.969,-8.785 -18.578,-7.488 -22.682,-5.112L-30.962,-13.321C-25.274,-17.281 -17.425,-19.729 -8.929,-19.729C5.4,-19.729 12.602,-12.817 12.602,-1.08L12.602,26.355Z" style="fill:rgb(26,23,27);fill-rule:nonzero;"/>
        </g>
        <g transform="matrix(-1,0,0,1,759.7,-257.304)">
            <rect x="376.269" y="288.188" width="13.825" height="60.486" style="fill:rgb(26,23,27);"/>
        </g>
        <g transform="matrix(1,0,0,1,400.278,76.6795)">
            <path d="M0,15.338C-4.682,15.338 -7.129,12.098 -7.129,7.633C-7.129,3.24 -4.682,0 0,0C4.68,0 7.127,3.24 7.127,7.633C7.127,12.098 4.607,15.338 0,15.338" style="fill:rgb(156,157,159);fill-rule:nonzero;"/>
        </g>
        <g transform="matrix(1,0,0,1,474.442,91.3693)">
            <path d="M0,-45.365L-14.617,0L-27.578,0L-33.482,-19.442L-35.068,-27.939L-35.139,-27.939L-36.723,-19.442L-42.699,0L-55.662,0L-70.135,-45.365L-55.662,-45.365L-50.26,-25.995L-48.605,-17.57L-48.461,-17.57L-46.732,-25.995L-40.756,-45.365L-29.379,-45.365L-23.402,-25.995L-21.602,-17.57L-21.459,-17.57L-19.875,-25.995L-14.475,-45.365L0,-45.365Z" style="fill:rgb(75,75,77);fill-rule:nonzero;"/>
        </g>
        <g transform="matrix(1,0,0,1,514.831,74.3734)">
            <path d="M0,-11.375L-1.225,-12.6C-3.025,-16.056 -6.336,-18.288 -11.162,-18.288C-15.986,-18.288 -19.299,-15.983 -21.17,-12.6L-22.467,-11.375L0,-11.375ZM13.393,-0.646L-22.682,-0.646L-21.387,0.578C-19.369,4.034 -15.338,6.771 -10.152,6.771C-5.545,6.771 -2.016,5.475 1.225,3.026L9.072,10.947C4.104,15.339 -2.016,17.714 -10.225,17.714C-27.506,17.714 -36.291,7.49 -36.291,-5.398C-36.291,-18.864 -27.074,-29.089 -11.09,-29.089C5.473,-29.089 13.752,-18.504 13.752,-5.398C13.752,-4.03 13.682,-2.158 13.393,-0.646" style="fill:rgb(75,75,77);fill-rule:nonzero;"/>
        </g>
        <g transform="matrix(1,0,0,1,567.028,79.5589)">
            <path d="M0,-22.249L-3.959,-22.249C-12.457,-22.249 -15.984,-18.145 -15.984,-10.656L-15.984,11.81L-29.811,11.81L-29.811,-33.555L-15.984,-33.555L-15.984,-28.154L-15.84,-28.154C-13.248,-31.971 -9,-34.059 -2.809,-34.059L0,-34.059L0,-22.249Z" style="fill:rgb(75,75,77);fill-rule:nonzero;"/>
        </g>
        <g transform="matrix(1,0,0,1,626.862,30.883)">
            <path d="M0,60.486L-17.785,60.486L-38.74,37.3L-18.002,15.121L-0.936,15.121L-21.961,37.228L-21.961,37.371L0,60.486ZM-39.459,60.486L-53.285,60.486L-53.285,0L-39.459,0L-39.459,60.486Z" style="fill:rgb(75,75,77);fill-rule:nonzero;"/>
        </g>
        <g transform="matrix(1,0,0,1,651.426,45.357)">
            <path d="M0,46.803C-8.785,46.803 -15.625,44.211 -23.33,38.09L-15.049,29.595C-11.018,33.554 -5.473,35.787 -0.217,35.787C5.76,35.787 7.848,34.346 7.848,32.835C7.848,31.538 7.129,30.602 2.592,29.595C1.656,29.378 -4.537,27.794 -5.545,27.578C-13.25,25.706 -21.963,22.609 -21.963,13.896C-21.963,5.616 -13.969,0 -0.865,0C7.775,0 15.049,2.88 20.305,7.992L12.313,15.913C9,12.745 4.176,10.801 -0.721,10.801C-6.625,10.801 -8.064,12.385 -8.064,13.753C-8.064,15.337 -5.689,15.985 -0.721,17.137C0.215,17.425 5.545,18.793 6.553,19.081C16.273,21.386 21.746,24.986 21.746,32.114C21.746,40.25 14.4,46.803 0,46.803" style="fill:rgb(75,75,77);fill-rule:nonzero;"/>
        </g>
        <g transform="matrix(1,0,0,1,712.384,25.6331)">
            <path d="M0,12.213L-15.748,12.213L-14.902,13.596L-14.902,28.577L-26.965,28.577L-26.965,13.673L-26.119,12.213L-41.868,12.213L-41.868,0.075L-26.196,0.075L-26.965,-1.307L-26.965,-16.364L-14.902,-16.364L-14.902,-1.307L-15.672,0.075L0,0.075L0,12.213Z" style="fill:rgb(204,175,0);fill-rule:nonzero;"/>
        </g>
    </g>
    <g id="claim">
    </g>
</svg>
